<svg xmlns="http://www.w3.org/2000/svg" viewBox="0 0 64 64" fill="white">
  <!-- Body -->
  <ellipse cx="32" cy="36" rx="12" ry="15" />
  <!-- Head -->
  <circle cx="32" cy="18" r="7" />
  <!-- Wing line -->
  <line x1="32" y1="22" x2="32" y2="50" stroke="#333" stroke-width="1.5"/>
  <!-- Eyes -->
  <circle cx="28" cy="16" r="2" fill="#333"/>
  <circle cx="36" cy="16" r="2" fill="#333"/>
  <!-- Antennae -->
  <line x1="28" y1="13" x2="22" y2="6" stroke="white" stroke-width="1.5" stroke-linecap="round"/>
  <line x1="36" y1="13" x2="42" y2="6" stroke="white" stroke-width="1.5" stroke-linecap="round"/>
  <circle cx="22" cy="6" r="1.5"/>
  <circle cx="42" cy="6" r="1.5"/>
  <!-- Legs -->
  <line x1="22" y1="30" x2="14" y2="26" stroke="white" stroke-width="1.5" stroke-linecap="round"/>
  <line x1="42" y1="30" x2="50" y2="26" stroke="white" stroke-width="1.5" stroke-linecap="round"/>
  <line x1="20" y1="38" x2="12" y2="40" stroke="white" stroke-width="1.5" stroke-linecap="round"/>
  <line x1="44" y1="38" x2="52" y2="40" stroke="white" stroke-width="1.5" stroke-linecap="round"/>
  <line x1="22" y1="46" x2="15" y2="52" stroke="white" stroke-width="1.5" stroke-linecap="round"/>
  <line x1="42" y1="46" x2="49" y2="52" stroke="white" stroke-width="1.5" stroke-linecap="round"/>
  <!-- Spots -->
  <circle cx="26" cy="32" r="2.5" fill="#333" opacity="0.5"/>
  <circle cx="38" cy="32" r="2.5" fill="#333" opacity="0.5"/>
  <circle cx="28" cy="42" r="2" fill="#333" opacity="0.5"/>
  <circle cx="36" cy="42" r="2" fill="#333" opacity="0.5"/>
</svg>
