<svg xmlns="http://www.w3.org/2000/svg" viewBox="0 0 64 64" fill="white">
  <!-- Moss cluster base -->
  <ellipse cx="32" cy="54" rx="20" ry="6" opacity="0.5"/>
  <!-- Moss stalks with capsules -->
  <line x1="20" y1="52" x2="20" y2="30" stroke="white" stroke-width="1.5" stroke-linecap="round"/>
  <ellipse cx="20" cy="28" rx="2.5" ry="4" />
  <line x1="26" y1="52" x2="26" y2="22" stroke="white" stroke-width="1.5" stroke-linecap="round"/>
  <ellipse cx="26" cy="20" rx="2.5" ry="4" />
  <line x1="32" y1="52" x2="32" y2="18" stroke="white" stroke-width="1.5" stroke-linecap="round"/>
  <ellipse cx="32" cy="16" rx="3" ry="4.5" />
  <line x1="38" y1="52" x2="38" y2="24" stroke="white" stroke-width="1.5" stroke-linecap="round"/>
  <ellipse cx="38" cy="22" rx="2.5" ry="4" />
  <line x1="44" y1="52" x2="44" y2="32" stroke="white" stroke-width="1.5" stroke-linecap="round"/>
  <ellipse cx="44" cy="30" rx="2.5" ry="4" />
  <!-- Small leaf-like structures at base -->
  <ellipse cx="18" cy="54" rx="4" ry="2" transform="rotate(-20 18 54)" opacity="0.7"/>
  <ellipse cx="26" cy="56" rx="4" ry="2" transform="rotate(10 26 56)" opacity="0.7"/>
  <ellipse cx="34" cy="55" rx="4" ry="2" transform="rotate(-5 34 55)" opacity="0.7"/>
  <ellipse cx="42" cy="54" rx="4" ry="2" transform="rotate(15 42 54)" opacity="0.7"/>
</svg>
