<svg xmlns="http://www.w3.org/2000/svg" viewBox="0 0 64 64" fill="white">
  <!-- Main stem -->
  <path d="M32 60 C32 60 32 10 32 10" stroke="white" stroke-width="2" fill="none" stroke-linecap="round"/>
  <!-- Frond curl top -->
  <path d="M32 10 C32 6 36 4 38 6 C40 8 38 12 34 12" stroke="white" stroke-width="2" fill="none" stroke-linecap="round"/>
  <!-- Left leaflets -->
  <path d="M32 18 C28 14 22 14 20 16" stroke="white" stroke-width="1.5" fill="none" stroke-linecap="round"/>
  <ellipse cx="23" cy="16" rx="5" ry="2.5" transform="rotate(-30 23 16)" opacity="0.8"/>
  <path d="M32 26 C28 22 20 22 18 24" stroke="white" stroke-width="1.5" fill="none" stroke-linecap="round"/>
  <ellipse cx="21" cy="24" rx="6" ry="3" transform="rotate(-25 21 24)" opacity="0.8"/>
  <path d="M32 34 C28 30 18 30 16 32" stroke="white" stroke-width="1.5" fill="none" stroke-linecap="round"/>
  <ellipse cx="20" cy="32" rx="7" ry="3" transform="rotate(-20 20 32)" opacity="0.8"/>
  <path d="M32 42 C28 38 20 38 18 40" stroke="white" stroke-width="1.5" fill="none" stroke-linecap="round"/>
  <ellipse cx="22" cy="40" rx="6" ry="2.5" transform="rotate(-15 22 40)" opacity="0.7"/>
  <!-- Right leaflets -->
  <path d="M32 18 C36 14 42 14 44 16" stroke="white" stroke-width="1.5" fill="none" stroke-linecap="round"/>
  <ellipse cx="41" cy="16" rx="5" ry="2.5" transform="rotate(30 41 16)" opacity="0.8"/>
  <path d="M32 26 C36 22 44 22 46 24" stroke="white" stroke-width="1.5" fill="none" stroke-linecap="round"/>
  <ellipse cx="43" cy="24" rx="6" ry="3" transform="rotate(25 43 24)" opacity="0.8"/>
  <path d="M32 34 C36 30 46 30 48 32" stroke="white" stroke-width="1.5" fill="none" stroke-linecap="round"/>
  <ellipse cx="44" cy="32" rx="7" ry="3" transform="rotate(20 44 32)" opacity="0.8"/>
  <path d="M32 42 C36 38 44 38 46 40" stroke="white" stroke-width="1.5" fill="none" stroke-linecap="round"/>
  <ellipse cx="42" cy="40" rx="6" ry="2.5" transform="rotate(15 42 40)" opacity="0.7"/>
</svg>
